<svg width="100%" height="100%" viewBox="0 0 456 48" version="1.1" xmlns="http://www.w3.org/2000/svg">
    <path d="M8,0L0,0L0,48L8,48L8,0ZM208,40L192,40L192,48L208,48L208,40ZM432,48L456,48L456,40L440,40L440,0L432,0L432,48ZM336,48L360,48L360,40L344,40L344,8L336,8L336,48ZM40,48L40,16L48,16L48,48L56,48L56,0L48,0L48,8L40,8L40,0L32,0L32,48L40,48ZM280,48L280,24L288,24L288,48L296,48L296,0L288,0L288,16L280,16L280,0L272,0L272,48L280,48ZM16,32L16,48L24,48L24,8L16,8L16,24L8,24L8,32L16,32ZM392,24L384,24L384,48L392,48L392,24ZM120,32L112,32L112,48L120,48L120,32ZM242.212,3.703L247.107,18.418L262.945,18.418L250.131,27.512L255.026,42.227L242.212,33.133L229.398,42.227L234.293,27.512L221.479,18.418L237.318,18.418L242.212,3.703ZM216,24L208,24L208,40L216,40L216,24ZM120,8L112,8L112,24L120,24L120,8ZM208,16L200,16L200,24L208,24L208,16ZM376,48L376,24L384,24L384,16L376,16L376,0L368,0L368,48L376,48ZM200,8L192,8L192,16L200,16L200,8ZM392,-0L384,-0L384,16L392,16L392,-0ZM360,-0L344,-0L344,8L360,8L360,-0ZM136,16L136,8L152,8L152,0L128,0L128,48L152,48L152,40L136,40L136,24L144,24L144,16L136,16ZM216,0L200,0L200,8L216,8L216,0ZM168,24L168,8L176,8L176,0L160,0L160,48L168,48L168,32L176,32L176,48L184,48L184,8L176,8L176,24L168,24ZM312,24L312,8L320,8L320,0L304,-0L304,48L312,48L312,32L320,32L320,48L328,48L328,8L320,8L320,24L312,24ZM104,24L104,8L112,8L112,0L96,0L96,48L104,48L104,32L112,32L112,24L104,24ZM72,40L72,8L80,8L80,0L64,0L64,48L88,48L88,8L80,8L80,40L72,40ZM16,0L8,0L8,8L16,8L16,0ZM408,16L408,8L424,8L424,-0L400,0L400,48L424,48L424,40L408,40L408,24L416,24L416,16L408,16ZM226.022,6.506L226.1,6.748L226.351,6.748L226.148,6.898L226.226,7.14L226.022,6.991L225.819,7.14L225.896,6.898L225.693,6.748L225.944,6.748L226.022,6.506Z" style="fill:white;"/>
</svg>
